<?xml version="1.0" encoding="utf-8"?>
<!-- Generator: Adobe Illustrator 25.0.0, SVG Export Plug-In . SVG Version: 6.00 Build 0)  -->
<svg version="1.1" id="Calque_1" xmlns="http://www.w3.org/2000/svg" xmlns:xlink="http://www.w3.org/1999/xlink" x="0px" y="0px"
	 viewBox="0 0 32 32" style="enable-background:new 0 0 32 32;" xml:space="preserve">
<style type="text/css">
	.st0{fill:#FFFFFF;stroke:#000000;stroke-miterlimit:10;}
</style>
<path class="st0" d="M17.8,11.1h-4.1c-0.5,0-0.9-0.4-0.9-0.9v0c0-0.5,0.4-0.9,0.9-0.9h4.1c0.5,0,0.9,0.4,0.9,0.9v0
	C18.7,10.8,18.3,11.1,17.8,11.1z"/>
<path class="st0" d="M17.8,13.2h-4.1c-0.5,0-0.9-0.4-0.9-0.9v0c0-0.5,0.4-0.9,0.9-0.9h4.1c0.5,0,0.9,0.4,0.9,0.9v0
	C18.7,12.8,18.3,13.2,17.8,13.2z"/>
<path class="st0" d="M17.8,15.3h-4.1c-0.5,0-0.9-0.4-0.9-0.9v0c0-0.5,0.4-0.9,0.9-0.9h4.1c0.5,0,0.9,0.4,0.9,0.9v0
	C18.7,14.9,18.3,15.3,17.8,15.3z"/>
<path class="st0" d="M17.8,17.4h-4.1c-0.5,0-0.9-0.4-0.9-0.9v0c0-0.5,0.4-0.9,0.9-0.9h4.1c0.5,0,0.9,0.4,0.9,0.9v0
	C18.7,17,18.3,17.4,17.8,17.4z"/>
<path class="st0" d="M16.1,9.4h-0.7c-0.3,0-0.6-0.3-0.6-0.6V1.5c0-0.3,0.3-0.6,0.6-0.6h0.7c0.3,0,0.6,0.3,0.6,0.6v7.2
	C16.7,9.1,16.5,9.4,16.1,9.4z"/>
<path class="st0" d="M19.2,20.1c-1-1.1-2.5-2.7-2.5-2.7h-0.9h-0.9c0,0-1.5,1.6-2.5,2.7s-2.2,2.9-2.1,4.7c0,1.9,1.5,5.5,5.5,5.5
	c0,0,0,0,0,0c0,0,0,0,0,0c4,0,5.5-3.7,5.5-5.5C21.4,23,20.3,21.2,19.2,20.1z"/>
<path class="st0" d="M17.7,21.4c-0.7-0.7-1.9-2.1-1.9-2.1c0,0,0,0,0,0c0,0,0,0,0,0c0,0-1.2,1.4-1.9,2.1c-0.7,0.7-1.7,2.3-1.7,3.4
	c0,1.1,0.8,3.7,3.7,3.7c0,0,0,0,0,0c0,0,0,0,0,0c2.8,0,3.7-2.6,3.7-3.7C19.4,23.7,18.5,22.1,17.7,21.4z"/>
</svg>
